<?xml version="1.0" encoding="UTF-8"?>
<svg width="1223px" height="1407px" viewBox="0 0 1223 1407" version="1.1" xmlns="http://www.w3.org/2000/svg" xmlns:xlink="http://www.w3.org/1999/xlink">
    <title>Group</title>
    <g id="posters" stroke="none" stroke-width="1" fill="none" fill-rule="evenodd">
        <g id="insta-portrait-copy-21" transform="translate(-1170.000000, -131.000000)">
            <g id="Group" transform="translate(1170.575228, 131.390000)">
                <path d="M40.5327911,1054.15189 C36.1036412,1046.95115 33.7766265,1038.46876 33.7570718,1027.76549 C33.6006338,1005.56647 44.9032767,974.307831 67.7432194,938.274786 C101.836918,884.112708 160.784699,819.169089 238.045498,751.46649 C315.29652,683.705191 410.870339,612.999023 518.401884,546.313921 C636.033456,473.337956 751.621556,415.330917 853.257346,375.68772 C954.814917,335.995604 1042.75261,314.872785 1103.27454,314.960837 C1125.32252,314.951054 1143.59643,317.758951 1157.28475,322.865996 C1171.03174,328.02196 1179.9487,335.056377 1185.49247,343.959465 L1210.42477,328.491573 C1200.8625,313.013898 1185.67824,302.066036 1167.50211,295.354478 C1149.24775,288.594002 1127.73753,285.629567 1103.27454,285.61 C1036.33865,285.707836 946.31838,307.955771 842.609787,348.342523 C738.979413,388.76841 621.993148,447.528786 502.943858,521.365709 C357.867201,611.36516 234.20299,708.535999 146.294632,797.292931 C102.335564,841.700748 67.3032377,883.975737 42.9282474,922.611223 C18.6608083,961.30541 4.57161414,996.272041 4.42477228,1027.76549 C4.39562143,1042.84204 7.92525299,1057.2533 15.610268,1069.61 L40.5425685,1054.15189" id="Fill-103" fill="#FFFFFE"></path>
                <path d="M1210.23938,1069.61 C1217.91461,1057.2533 1221.44425,1042.84204 1221.42477,1027.76549 C1221.26825,996.272041 1207.17906,961.30541 1182.91162,922.611223 C1146.35402,864.692237 1085.79297,798.418047 1007.12422,729.394661 C928.45547,660.410409 831.679027,588.853068 722.876414,521.365709 C603.836891,447.528786 486.850616,388.76841 383.220234,348.342523 C279.511632,307.955771 189.501131,285.707836 122.555454,285.61 C98.1022431,285.629567 76.5920213,288.594002 58.3376648,295.354478 C40.1615274,302.066036 24.9772662,313.013898 15.4247723,328.491573 L40.3570749,343.959465 C45.9008457,335.056377 54.808033,328.02196 68.5550202,322.865996 C82.2335658,317.758951 100.517254,314.951054 122.555454,314.960837 C183.077397,314.872785 271.015095,335.995604 372.572674,375.68772 C474.208472,415.330917 589.786805,473.337956 707.418386,546.313921 C850.793792,635.217607 972.922965,731.322032 1058.69986,817.955921 C1101.58342,861.238622 1135.36425,902.192824 1158.09664,938.274786 C1180.93659,974.307831 1192.24901,1005.57626 1192.09257,1027.76549 C1192.06324,1038.46876 1189.73622,1046.95115 1185.30707,1054.15189 L1210.23938,1069.61" id="Fill-104" fill="#FFFFFE"></path>
                <path d="M613.424772,0.61 C596.423836,0.580786133 580.14676,6.82522992 565.64999,17.3792194 C540.226841,35.9366509 518.716451,67.2175031 499.348296,108.681001 C470.452573,170.900678 446.907549,256.651842 430.35658,358.390347 C413.834957,460.099534 404.424772,577.727656 404.424772,703.114915 C404.444336,894.200758 426.238401,1067.15915 461.893414,1193.46499 C479.774721,1256.65212 501.011218,1308.181 525.57356,1345.03201 C537.89875,1363.44286 551.084746,1378.2673 565.64999,1388.84084 C580.14676,1399.39483 596.423836,1405.6295 613.424772,1405.61 L613.424772,1376.29332 C603.593966,1376.264 593.675123,1372.88281 582.87591,1365.10413 C564.026195,1351.60871 543.992871,1324.15856 525.964836,1285.19675 C498.771164,1226.77847 475.529378,1143.04038 459.320775,1043.13905 C443.082827,943.208403 433.76068,827.026569 433.770462,703.114915 C433.741116,514.315769 455.456926,343.360684 490.133749,220.719417 C507.41836,159.4281 528.058162,110.22501 549.989174,77.4587818 C560.915552,61.0707815 572.135387,48.8652881 582.87591,41.1061513 C593.675123,33.3372424 603.593966,29.9462847 613.424772,29.9267403 L613.424772,0.61" id="Fill-105" fill="#FFFFFE"></path>
                <path d="M629.424772,610.11 C629.424772,530.862412 565.17236,466.61 485.914952,466.61 C406.677185,466.61 342.424772,530.862412 342.424772,610.11 C342.424772,689.367408 406.677185,753.61 485.914952,753.61 C565.17236,753.61 629.424772,689.367408 629.424772,610.11" id="Fill-106" fill="#F9DA47"></path>
                <path d="M860.424772,599.11 C860.424772,519.862412 796.17236,455.61 716.924772,455.61 C637.677185,455.61 573.424772,519.862412 573.424772,599.11 C573.424772,678.357588 637.677185,742.61 716.924772,742.61 C796.17236,742.61 860.424772,678.357588 860.424772,599.11" id="Fill-107" fill="#F9DA47"></path>
                <path d="M887.424772,758.10509 C887.424772,678.864611 823.178955,614.61 743.929682,614.61 C664.690228,614.61 600.424772,678.864611 600.424772,758.10509 C600.424772,837.36521 664.690228,901.61 743.929682,901.61 C823.178955,901.61 887.424772,837.36521 887.424772,758.10509" id="Fill-108" fill="#C54E60"></path>
                <path d="M622.424772,783.11 C622.424772,703.852592 558.189802,639.61 478.939503,639.61 C399.679383,639.61 335.424772,703.852592 335.424772,783.11 C335.424772,862.357588 399.679383,926.61 478.939503,926.61 C558.189802,926.61 622.424772,862.357588 622.424772,783.11" id="Fill-109" fill="#C54E60"></path>
                <path d="M759.424772,563.11491 C759.424772,483.870034 695.189802,419.61 615.939503,419.61 C536.679383,419.61 472.424772,483.870034 472.424772,563.11491 C472.424772,642.359786 536.679383,706.61 615.939503,706.61 C695.189802,706.61 759.424772,642.359786 759.424772,563.11491" id="Fill-110" fill="#E3697D"></path>
                <path d="M766.424772,842.11 C766.424772,762.862412 702.170161,698.61 622.919862,698.61 C543.679383,698.61 479.424772,762.862412 479.424772,842.11 C479.424772,921.357588 543.679383,985.61 622.919862,985.61 C702.170161,985.61 766.424772,921.357588 766.424772,842.11" id="Fill-111" fill="#F9DA47"></path>
                <path d="M612.424772,1405.61 C629.423322,1405.6295 645.698112,1399.39483 660.192848,1388.84084 C685.622208,1370.28341 707.119798,1339.00255 726.495014,1297.54883 C755.38668,1235.31938 778.928399,1149.57799 795.486825,1047.83948 C812.006128,946.120523 821.424772,828.492401 821.424772,703.114915 C821.405211,512.029071 799.614206,339.06091 763.954418,212.755064 C746.065841,149.567938 724.832325,98.0390613 700.263651,61.188048 C687.949972,42.7674275 674.756047,27.9527533 660.192848,17.3792194 C645.698112,6.82522992 629.423322,0.580786133 612.424772,0.61 L612.424772,29.9267403 C622.254198,29.9462847 632.171649,33.3372424 642.969346,41.1061513 C661.826195,54.611349 681.856706,82.0614939 699.882211,121.023305 C727.072065,179.441591 750.320369,263.17968 766.526696,363.081009 C782.762364,463.021426 792.083203,579.20326 792.083203,703.114915 C792.102764,891.904288 770.390002,1062.85937 735.718048,1185.50064 C718.426083,1246.79196 697.789179,1295.99505 675.861246,1328.76128 C664.926621,1345.14928 653.708361,1357.35477 642.969346,1365.10413 C632.171649,1372.88281 622.254198,1376.264 612.424772,1376.29332 L612.424772,1405.61" id="Fill-112" fill="#FFFFFE"></path>
                <path d="M15.610268,327.61 C7.92525299,339.976332 4.39562143,354.37763 4.42477228,369.463772 C4.58139151,400.956827 18.6608083,435.923022 42.9282474,474.606943 C79.4858441,532.534989 140.037114,598.808353 218.705855,667.830877 C297.364818,736.804484 394.131476,808.360933 502.924303,875.847449 C621.973594,949.683451 738.969636,1008.45288 842.590232,1048.87826 C946.308602,1089.26451 1036.3191,1111.51217 1103.26477,1111.61 C1127.72775,1111.59043 1149.23797,1108.62604 1167.49233,1101.86564 C1185.67824,1095.15417 1200.85272,1084.20644 1210.42477,1068.72896 L1185.49247,1053.26126 C1179.93892,1062.16424 1171.03174,1069.18879 1157.27497,1074.35447 C1143.58665,1079.46145 1125.31274,1082.26931 1103.26477,1082.25953 C1042.74283,1082.34758 954.795362,1061.22502 853.247568,1021.5334 C751.602001,981.890701 636.023678,923.874603 518.382329,850.899549 C375.02649,761.996972 252.897327,665.90353 167.130213,579.270723 C124.246657,535.978778 90.4756111,495.034871 67.7432194,458.953358 C44.9032767,422.920763 33.6006338,391.652728 33.7570718,369.463772 C33.7766265,358.760633 36.1036412,350.268564 40.5425685,343.077698 L15.610268,327.61" id="Fill-113" fill="#FFFFFE"></path>
                <path d="M1185.31646,343.068108 C1189.74565,350.259063 1192.07268,358.741455 1192.09223,369.444727 C1192.24867,391.63396 1180.94594,422.902385 1158.10581,458.93543 C1124.01184,513.097508 1065.06358,578.041128 987.802153,645.743726 C910.540727,713.505026 814.975911,784.201409 707.443494,850.896295 C589.801191,923.872261 474.221931,981.889083 372.585317,1021.53228 C271.026923,1061.2244 183.088519,1082.34722 122.566091,1082.25916 C100.517937,1082.26895 82.2438793,1079.46105 68.5554465,1074.354 C54.808349,1069.18826 45.9010902,1062.16362 40.3572749,1053.26054 L15.4247723,1068.71864 C24.9871203,1084.2061 40.1617259,1095.15396 58.3477866,1101.86552 C76.5925121,1108.626 98.1029065,1111.59043 122.566091,1111.61 C189.512305,1111.51216 279.523529,1089.26423 383.232962,1048.87748 C486.864176,1008.45159 603.851389,949.68143 722.901645,875.844507 C867.979478,785.845056 991.644691,688.674217 1079.55376,599.917285 C1123.51319,555.509468 1158.5458,513.234479 1182.92098,474.58921 C1207.18862,435.904806 1221.26815,400.938175 1221.42477,369.444727 C1221.45392,354.36818 1217.92426,339.966703 1210.24896,327.61 L1185.31646,343.068108" id="Fill-114" fill="#FFFFFE"></path>
                <path d="M1093.42477,615.11488 C1093.42477,587.775927 1071.25666,565.61 1043.93453,565.61 C1016.57336,565.61 994.424772,587.775927 994.424772,615.11488 C994.424772,642.444073 1016.57336,664.61 1043.93453,664.61 C1071.25666,664.61 1093.42477,642.444073 1093.42477,615.11488" id="Fill-115" fill="#FFFFFE"></path>
                <path d="M99.4247723,464.10512 C99.4247723,436.775927 77.2664209,414.61 49.9247723,414.61 C22.5831237,414.61 0.424772277,436.775927 0.424772277,464.10512 C0.424772277,491.444073 22.5831237,513.61 49.9247723,513.61 C77.2664209,513.61 99.4247723,491.444073 99.4247723,464.10512" id="Fill-116" fill="#FFFFFE"></path>
                <path d="M803.424772,1168.11 C803.424772,1140.7835 781.256659,1118.61 753.934534,1118.61 C726.573362,1118.61 704.424772,1140.7835 704.424772,1168.11 C704.424772,1195.44626 726.573362,1217.61 753.934534,1217.61 C781.256659,1217.61 803.424772,1195.44626 803.424772,1168.11" id="Fill-117" fill="#FFFFFE"></path>
            </g>
        </g>
    </g>
</svg>